<?xml version="1.0" encoding="UTF-8"?>
<svg
    xmlns="http://www.w3.org/2000/svg"
    width="16"
    height="16"
    viewBox="0 0 16 16"
    class="symbolic"
    fill="currentColor">
    <path d="M8 1c-1.644531 0-3 1.355469-3 3v4.34375c-.457031-.21875-.964844-.34375-1.5-.34375C1.578125 8 0 9.578125 0 11.5S1.578125 15 3.5 15c1.914062 0 3.492188-1.570312 3.5-3.480469 0-.007812 0-.011719 0-.019531v-7.5c0-.5625.4375-1 1-1h4c.5625 0 1 .4375 1 1v4.34375c-.457031-.21875-.964844-.34375-1.5-.34375C9.578125 8 8 9.578125 8 11.5S9.578125 15 11.5 15 15 13.421875 15 11.5v-7.5c0-1.644531-1.355469-3-3-3zM3.5 10c.839844 0 1.5.660156 1.5 1.5v.015625c-.007812.832031-.664062 1.484375-1.5 1.484375-.839844 0-1.5-.660156-1.5-1.5S2.660156 10 3.5 10zm8 0c.839844 0 1.5.660156 1.5 1.5S12.339844 13 11.5 13 10 12.339844 10 11.5s.660156-1.5 1.5-1.5z"/>
</svg>
